<svg width="800px" height="800px" viewBox="-2 -2 24.00 24.00" xmlns="http://www.w3.org/2000/svg" fill="#000000" transform="rotate(0)">
<g id="SVGRepo_bgCarrier" stroke-width="0"/>
<g id="SVGRepo_tracerCarrier" stroke-linecap="round" stroke-linejoin="round" stroke="#CCCCCC" stroke-width="0.04"/>
<g id="SVGRepo_iconCarrier"> <g id="copy-5" transform="translate(-3 -2)"> <path id="secondary" fill="#06bc55" d="M14,5V3H5A1,1,0,0,0,4,4V16a1,1,0,0,0,1,1H15a1,1,0,0,0,1-1V5Z"/> <path id="primary" d="M16,7h3a1,1,0,0,1,1,1V20a1,1,0,0,1-1,1H9a1,1,0,0,1-1-1V17" fill="none" stroke="#000000" stroke-linecap="round" stroke-linejoin="round" stroke-width="0.5"/> <path id="primary-2" data-name="primary" d="M14,3H5A1,1,0,0,0,4,4V16a1,1,0,0,0,1,1H15a1,1,0,0,0,1-1V5Zm0,0V5h2Z" fill="none" stroke="#000000" stroke-linecap="round" stroke-linejoin="round" stroke-width="0.5"/> </g> </g>
</svg>